<?xml version="1.0" standalone="no"?>
<!DOCTYPE svg PUBLIC "-//W3C//DTD SVG 20010904//EN"
 "http://www.w3.org/TR/2001/REC-SVG-20010904/DTD/svg10.dtd">
<svg version="1.0" xmlns="http://www.w3.org/2000/svg"
 width="1024.000000pt" height="1024.000000pt" viewBox="0 0 1024.000000 1024.000000"
 preserveAspectRatio="xMidYMid meet">

<g transform="translate(0.000000,1024.000000) scale(0.100000,-0.100000)"
fill="#000000" stroke="none">
<path d="M1896 6174 c-15 -14 -16 -119 -14 -1047 l3 -1032 251 -3 252 -2 6 22
c3 13 6 268 6 566 0 430 3 543 13 540 6 -3 132 -184 279 -404 248 -370 448
-663 482 -708 14 -17 36 -19 260 -24 l244 -5 7 74 c3 41 5 515 3 1054 l-3 980
-254 -1 c-203 -1 -255 -4 -262 -15 -5 -8 -9 -266 -9 -574 l-1 -560 -20 25
c-11 14 -55 79 -98 145 -43 66 -111 172 -153 235 -81 124 -154 236 -351 541
-87 135 -135 199 -150 203 -12 3 -124 6 -249 6 -193 0 -229 -2 -242 -16z"/>
<path d="M4560 6013 c-177 -29 -380 -125 -512 -242 -26 -23 -73 -77 -105 -119
-148 -196 -224 -437 -209 -659 31 -455 307 -798 731 -908 175 -46 326 -42 500
12 315 98 579 395 646 728 39 193 35 314 -17 495 -115 407 -507 705 -917 699
-51 -1 -103 -4 -117 -6z m262 -558 c175 -61 288 -223 288 -415 0 -179 -97
-337 -257 -416 -54 -27 -66 -29 -168 -28 -102 0 -115 2 -178 32 -144 67 -244
216 -255 377 -8 144 33 251 137 355 53 52 80 71 136 92 96 36 198 38 297 3z"/>
<path d="M5700 6012 c-7 -3 -10 -338 -10 -968 l0 -964 803 -2 c441 -2 815 -1
831 2 26 5 33 15 74 118 l44 112 300 0 299 0 15 -37 c9 -21 32 -73 51 -115
l36 -78 279 0 c202 0 278 3 278 11 0 7 -21 57 -46 113 -26 56 -58 126 -72 156
-14 30 -33 75 -42 100 -16 42 -109 260 -130 305 -5 11 -46 106 -90 210 -45
105 -103 240 -130 300 -26 61 -89 207 -140 325 -51 118 -100 233 -110 255 -10
22 -28 63 -40 92 -12 28 -28 54 -35 57 -11 4 -232 9 -293 7 -16 -1 -23 -16
-137 -311 -53 -135 -102 -258 -110 -275 -7 -16 -20 -48 -28 -70 -8 -22 -31
-78 -50 -125 -20 -47 -57 -139 -82 -205 -26 -66 -53 -133 -60 -150 -18 -40
-192 -480 -245 -620 -24 -60 -45 -113 -49 -117 -3 -4 -4 85 -2 198 1 113 0
220 -3 239 l-7 35 -284 0 -285 0 0 700 0 699 -260 3 c-143 2 -265 2 -270 0z
m2064 -964 c15 -40 45 -116 67 -168 21 -52 39 -100 39 -106 0 -11 -253 -14
-265 -3 -3 4 8 42 26 85 17 44 42 111 56 149 38 105 42 115 46 115 2 0 16 -33
31 -72z"/>
</g>
</svg>
