<svg width="80" height="80" viewBox="0 0 80 80" fill="none" xmlns="http://www.w3.org/2000/svg">
<path d="M43.952 46.112L45.072 19.288H34.712L35.832 46.112H43.952Z" fill="#ECCD43"/>
<path d="M35.888 58.992C36.9707 59.9627 38.352 60.448 40.032 60.448C41.6747 60.448 43.0187 59.9627 44.064 58.992C45.1467 57.984 45.688 56.752 45.688 55.296C45.688 53.8027 45.1467 52.552 44.064 51.544C43.0187 50.536 41.6747 50.032 40.032 50.032C38.352 50.032 36.9707 50.536 35.888 51.544C34.8427 52.552 34.32 53.8027 34.32 55.296C34.32 56.752 34.8427 57.984 35.888 58.992Z" fill="#ECCD43"/>
<path fill-rule="evenodd" clip-rule="evenodd" d="M0 40C0 17.9086 17.9086 0 40 0C62.0914 0 80 17.9086 80 40C80 62.0914 62.0914 80 40 80C17.9086 80 0 62.0914 0 40ZM40 72C22.3269 72 8 57.6731 8 40C8 22.3269 22.3269 8 40 8C57.6731 8 72 22.3269 72 40C72 57.6731 57.6731 72 40 72Z" fill="#ECCD43"/>
</svg>
